<svg xmlns="http://www.w3.org/2000/svg" style="display:none">
  <symbol id="icon-pig" viewBox="0 0 48 48">
    <path d="M10 22c0-7 6-12 14-12s14 5 14 12c0 2-1 3-1 5l3 2-1 4-4-1c-1 2-3 4-6 5v4h-4v-3c-1 .2-2.3.3-3.5.3s-2.5-.1-3.5-.3v3h-4v-4c-3.5-1.5-6-4.5-7-8l-3 1-1-4 3-1c0-1-.5-2-.5-3z" fill="none" stroke="currentColor" stroke-width="2" stroke-linejoin="round"/>
    <circle cx="16" cy="24" r="1.6" fill="currentColor"/>
    <circle cx="14" cy="18" r="1.4" fill="currentColor"/>
    <ellipse cx="10.5" cy="24" rx="3" ry="2.2" fill="none" stroke="currentColor" stroke-width="1.6"/>
    <circle cx="9.4" cy="23.6" r=".6" fill="currentColor"/>
    <circle cx="11.6" cy="23.6" r=".6" fill="currentColor"/>
  </symbol>

  <symbol id="icon-broiler" viewBox="0 0 48 48">
    <path d="M30 14c4 0 7 3 7 7 0 3-2 5-2 5l3 3-3 1 1 3-4-1c-1 3-4 5-8 5-6 0-11-4-11-10 0-5 3-9 8-11l-2-4 5 1 1-3 3 2z" fill="none" stroke="currentColor" stroke-width="2" stroke-linejoin="round"/>
    <path d="M31 10l3 3-4 1z" fill="currentColor"/>
    <circle cx="29" cy="19" r="1.4" fill="currentColor"/>
    <path d="M14 30l-4 6M18 32l-2 6" stroke="currentColor" stroke-width="2" stroke-linecap="round"/>
  </symbol>

  <symbol id="icon-snail" viewBox="0 0 48 48">
    <path d="M8 32c0-6 5-10 11-10 5 0 8 3 8 7 0 3-2 5-5 5s-5-2-5-4 1.5-3 3-3" fill="none" stroke="currentColor" stroke-width="2" stroke-linecap="round"/>
    <circle cx="28" cy="26" r="10" fill="none" stroke="currentColor" stroke-width="2"/>
    <path d="M28 34a8 8 0 010-16" fill="none" stroke="currentColor" stroke-width="1.6"/>
    <path d="M8 32c-2 2-3 5-3 5M14 22l-2-5M20 20l1-5" stroke="currentColor" stroke-width="1.8" stroke-linecap="round"/>
  </symbol>

  <symbol id="icon-goat" viewBox="0 0 48 48">
    <path d="M14 20c-2-4-1-8 2-9 2 3 1 6 0 8" fill="none" stroke="currentColor" stroke-width="2" stroke-linecap="round"/>
    <path d="M12 24c0-6 5-10 11-10s10 4 10 9c0 3-1 5-3 7l1 8h-4l-1-6c-1 .3-2 .4-3 .4s-2-.1-3-.4l-1 6h-4l1-8c-2-2-3-3-3-6z" fill="none" stroke="currentColor" stroke-width="2" stroke-linejoin="round"/>
    <circle cx="26" cy="18" r="1.4" fill="currentColor"/>
    <path d="M12 22l-4-1M12 24l-4 2" stroke="currentColor" stroke-width="1.6" stroke-linecap="round"/>
  </symbol>

  <symbol id="icon-fish" viewBox="0 0 48 48">
    <path d="M6 24c6-6 14-9 22-9 6 0 10 4 12 9-2 5-6 9-12 9-8 0-16-3-22-9z" fill="none" stroke="currentColor" stroke-width="2" stroke-linejoin="round"/>
    <path d="M40 24l6-6v12z" fill="none" stroke="currentColor" stroke-width="2" stroke-linejoin="round"/>
    <circle cx="16" cy="22" r="1.4" fill="currentColor"/>
    <path d="M12 24c3 1 6 1 9 0M12 28c3-1 6-1 9 0" stroke="currentColor" stroke-width="1.4" stroke-linecap="round"/>
  </symbol>

  <symbol id="icon-cattle" viewBox="0 0 48 48">
    <path d="M10 16c-2-2-2-5 0-6 2 1 3 3 2 6M38 16c2-2 2-5 0-6-2 1-3 3-2 6" fill="none" stroke="currentColor" stroke-width="2" stroke-linecap="round"/>
    <path d="M13 22c0-5 5-9 11-9s11 4 11 9c0 3-1.5 5-3.5 6.5L33 34h-5l-1-4c-1 .2-2 .3-3 .3s-2-.1-3-.3l-1 4h-5l1.5-5.5C14.5 27 13 25 13 22z" fill="none" stroke="currentColor" stroke-width="2" stroke-linejoin="round"/>
    <circle cx="20" cy="20" r="1.3" fill="currentColor"/>
    <circle cx="28" cy="20" r="1.3" fill="currentColor"/>
    <path d="M22 24h4" stroke="currentColor" stroke-width="1.6" stroke-linecap="round"/>
  </symbol>

  <symbol id="icon-rabbit" viewBox="0 0 48 48">
    <path d="M17 20c-3-5-3-11 0-13 2 1 3 6 2 12M25 20c1-6 4-11 6-11 2 2 1 8-2 12" fill="none" stroke="currentColor" stroke-width="2" stroke-linecap="round"/>
    <circle cx="22" cy="26" r="10" fill="none" stroke="currentColor" stroke-width="2"/>
    <circle cx="19" cy="24" r="1.3" fill="currentColor"/>
    <circle cx="25" cy="24" r="1.3" fill="currentColor"/>
    <path d="M20 29c1 1 3 1 4 0" stroke="currentColor" stroke-width="1.4" stroke-linecap="round" fill="none"/>
    <circle cx="30" cy="30" r="3" fill="none" stroke="currentColor" stroke-width="1.6"/>
  </symbol>

  <symbol id="icon-turkey" viewBox="0 0 48 48">
    <path d="M24 30c-5 2-9 1-12-2-2 3-1 6 1 7 3-2 6-3 9-2M24 30c5 2 9 1 12-2 2 3 1 6-1 7-3-2-6-3-9-2" fill="none" stroke="currentColor" stroke-width="1.8" stroke-linecap="round"/>
    <circle cx="24" cy="22" r="8" fill="none" stroke="currentColor" stroke-width="2"/>
    <path d="M24 14l4-4M24 14l-2-5M24 14l3 3" stroke="currentColor" stroke-width="1.6" stroke-linecap="round"/>
    <circle cx="22" cy="21" r="1.2" fill="currentColor"/>
    <path d="M28 22l3 1-3 2z" fill="currentColor"/>
    <path d="M24 30v8" stroke="currentColor" stroke-width="1.8" stroke-linecap="round"/>
  </symbol>

  <symbol id="icon-sheep" viewBox="0 0 48 48">
    <path d="M11 18c-2-3-1-7 1-8 2 2 2 5 1 8M37 18c2-3 1-7-1-8-2 2-2 5-1 8" fill="none" stroke="currentColor" stroke-width="2" stroke-linecap="round"/>
    <circle cx="14" cy="24" r="6" fill="none" stroke="currentColor" stroke-width="1.6"/>
    <circle cx="18" cy="20" r="5" fill="none" stroke="currentColor" stroke-width="1.6"/>
    <circle cx="24" cy="27" r="7" fill="none" stroke="currentColor" stroke-width="1.6"/>
    <circle cx="30" cy="20" r="5" fill="none" stroke="currentColor" stroke-width="1.6"/>
    <circle cx="34" cy="24" r="6" fill="none" stroke="currentColor" stroke-width="1.6"/>
    <path d="M18 30c0 5 3 9 6 9s6-4 6-9" fill="none" stroke="currentColor" stroke-width="2"/>
    <circle cx="22" cy="27" r="1.2" fill="currentColor"/>
    <circle cx="27" cy="27" r="1.2" fill="currentColor"/>
  </symbol>

  <symbol id="icon-grasscutter" viewBox="0 0 48 48">
    <path d="M8 30c0-6 6-11 15-11 8 0 14 4 17 3l1 4-4 1c-1 3-4 5-6 5l1 6h-4l-1-5c-2 .5-4 .7-6 .5l-1 5h-4l1-6c-6-1-9-4-9-2.5z" fill="none" stroke="currentColor" stroke-width="2" stroke-linejoin="round"/>
    <path d="M18 19l6-6" stroke="currentColor" stroke-width="2" stroke-linecap="round"/>
    <path d="M19 13l-1 6M23 12l1 6" stroke="currentColor" stroke-width="1.6" stroke-linecap="round"/>
    <circle cx="16" cy="24" r="1.3" fill="currentColor"/>
    <path d="M8 30c-2 1-3 3-3 3" stroke="currentColor" stroke-width="1.6" stroke-linecap="round" fill="none"/>
  </symbol>

  <symbol id="icon-quail" viewBox="0 0 48 48">
    <path d="M20 14c3-2 6-2 7 0-1 2-4 3-7 2" fill="currentColor"/>
    <path d="M14 22c0-6 5-10 11-10 7 0 12 5 12 12 0 6-4 11-11 11-3 0-5-1-7-2l-6 3 1-5c-2-2-3-5-3-9z" fill="none" stroke="currentColor" stroke-width="2" stroke-linejoin="round"/>
    <circle cx="28" cy="20" r="1.3" fill="currentColor"/>
    <path d="M34 22l4 1-4 2z" fill="currentColor"/>
    <path d="M18 33l-2 6M24 34l0 6" stroke="currentColor" stroke-width="1.8" stroke-linecap="round"/>
  </symbol>

  <!-- Generic social glyphs (letterforms/icons, not reproductions of brand logomarks) -->
  <symbol id="icon-facebook" viewBox="0 0 24 24">
    <path d="M14 8.5h2V5.6c-.35-.05-1.5-.15-2.85-.15-2.82 0-4.75 1.72-4.75 4.9V13H5.6v3.3h2.8V23h3.4v-6.7h2.75l.45-3.3h-3.2V10.7c0-.95.27-1.6 1.7-1.6z" fill="currentColor"/>
  </symbol>

  <symbol id="icon-x" viewBox="0 0 24 24">
    <path d="M5 5l14 14M19 5L5 19" stroke="currentColor" stroke-width="2.4" stroke-linecap="round"/>
  </symbol>

  <symbol id="icon-linkedin" viewBox="0 0 24 24">
    <rect x="4" y="9" width="3.4" height="11" fill="currentColor"/>
    <circle cx="5.7" cy="5.2" r="2" fill="currentColor"/>
    <path d="M11 9h3.2v1.7c.6-1 1.7-1.9 3.4-1.9 3 0 3.9 1.9 3.9 4.9V20h-3.4v-5.6c0-1.4-.5-2.4-1.8-2.4-1 0-1.6.7-1.9 1.4-.1.3-.1.6-.1 1V20H11z" fill="currentColor"/>
  </symbol>

  <symbol id="icon-github" viewBox="0 0 24 24">
    <path d="M8 17c-1.5.9-2.7.3-3.5-.7M15.5 21v-2.5c0-.8-.1-1.3-.4-1.7 2.3-.3 4.4-1.3 4.4-5.2 0-1.1-.4-2-1-2.7.1-.3.4-1.4-.1-2.8 0 0-.9-.3-2.9 1.1a9.7 9.7 0 00-5.3 0C8.2 5.3 7.3 5.6 7.3 5.6c-.5 1.4-.2 2.5-.1 2.8-.6.7-1 1.6-1 2.7 0 3.9 2.1 4.9 4.4 5.2-.2.2-.4.6-.5 1.1-.4.2-1.6.5-2.3-.6M15.5 21c0-.6 0-2 0-2.5" fill="none" stroke="currentColor" stroke-width="1.6" stroke-linecap="round" stroke-linejoin="round"/>
    <path d="M9.5 18.5c-2.5.8-2.5-1-3.5-1.2" fill="none" stroke="currentColor" stroke-width="1.6" stroke-linecap="round"/>
  </symbol>

  <symbol id="icon-whatsapp" viewBox="0 0 24 24">
    <path d="M6 21l1.3-3.8A8 8 0 1112 20a8 8 0 01-4.2-1.2z" fill="none" stroke="currentColor" stroke-width="1.6" stroke-linejoin="round"/>
    <path d="M9 10.5c.3 2 2.5 4.2 4.5 4.5.8.1 1.5-.5 1.7-1.1l-2-1-.6.7c-.8-.4-1.8-1.4-2.2-2.2l.7-.6-1-2c-.6.2-1.2.9-1.1 1.7z" fill="currentColor"/>
  </symbol>
</svg>
