<svg xmlns="http://www.w3.org/2000/svg" viewBox="0 0 64 64" width="64" height="64" role="img" aria-label="broiler icon">
  <circle cx="32" cy="32" r="30" fill="#EAF1EC" stroke="#F1D28A" stroke-width="2"/>
  <svg x="8" y="8" width="48" height="48" viewBox="0 0 48 48">
    
    <path d="M30 14c4 0 7 3 7 7 0 3-2 5-2 5l3 3-3 1 1 3-4-1c-1 3-4 5-8 5-6 0-11-4-11-10 0-5 3-9 8-11l-2-4 5 1 1-3 3 2z" fill="none" stroke="#1F4D3D" stroke-width="2" stroke-linejoin="round"/>
    <path d="M31 10l3 3-4 1z" fill="#1F4D3D"/>
    <circle cx="29" cy="19" r="1.4" fill="#1F4D3D"/>
    <path d="M14 30l-4 6M18 32l-2 6" stroke="#1F4D3D" stroke-width="2" stroke-linecap="round"/>
  
  </svg>
</svg>
