<svg xmlns="http://www.w3.org/2000/svg" viewBox="0 0 64 64" width="64" height="64" role="img" aria-label="cattle icon">
  <circle cx="32" cy="32" r="30" fill="#EAF1EC" stroke="#F1D28A" stroke-width="2"/>
  <svg x="8" y="8" width="48" height="48" viewBox="0 0 48 48">
    
    <path d="M10 16c-2-2-2-5 0-6 2 1 3 3 2 6M38 16c2-2 2-5 0-6-2 1-3 3-2 6" fill="none" stroke="#1F4D3D" stroke-width="2" stroke-linecap="round"/>
    <path d="M13 22c0-5 5-9 11-9s11 4 11 9c0 3-1.5 5-3.5 6.5L33 34h-5l-1-4c-1 .2-2 .3-3 .3s-2-.1-3-.3l-1 4h-5l1.5-5.5C14.5 27 13 25 13 22z" fill="none" stroke="#1F4D3D" stroke-width="2" stroke-linejoin="round"/>
    <circle cx="20" cy="20" r="1.3" fill="#1F4D3D"/>
    <circle cx="28" cy="20" r="1.3" fill="#1F4D3D"/>
    <path d="M22 24h4" stroke="#1F4D3D" stroke-width="1.6" stroke-linecap="round"/>
  
  </svg>
</svg>
