<svg xmlns="http://www.w3.org/2000/svg" viewBox="0 0 64 64" width="64" height="64" role="img" aria-label="pig icon">
  <circle cx="32" cy="32" r="30" fill="#EAF1EC" stroke="#F1D28A" stroke-width="2"/>
  <svg x="8" y="8" width="48" height="48" viewBox="0 0 48 48">
    
    <path d="M10 22c0-7 6-12 14-12s14 5 14 12c0 2-1 3-1 5l3 2-1 4-4-1c-1 2-3 4-6 5v4h-4v-3c-1 .2-2.3.3-3.5.3s-2.5-.1-3.5-.3v3h-4v-4c-3.5-1.5-6-4.5-7-8l-3 1-1-4 3-1c0-1-.5-2-.5-3z" fill="none" stroke="#1F4D3D" stroke-width="2" stroke-linejoin="round"/>
    <circle cx="16" cy="24" r="1.6" fill="#1F4D3D"/>
    <circle cx="14" cy="18" r="1.4" fill="#1F4D3D"/>
    <ellipse cx="10.5" cy="24" rx="3" ry="2.2" fill="none" stroke="#1F4D3D" stroke-width="1.6"/>
    <circle cx="9.4" cy="23.6" r=".6" fill="#1F4D3D"/>
    <circle cx="11.6" cy="23.6" r=".6" fill="#1F4D3D"/>
  
  </svg>
</svg>
