<svg xmlns="http://www.w3.org/2000/svg" viewBox="0 0 64 64" width="64" height="64" role="img" aria-label="quail icon">
  <circle cx="32" cy="32" r="30" fill="#EAF1EC" stroke="#F1D28A" stroke-width="2"/>
  <svg x="8" y="8" width="48" height="48" viewBox="0 0 48 48">
    
    <path d="M20 14c3-2 6-2 7 0-1 2-4 3-7 2" fill="#1F4D3D"/>
    <path d="M14 22c0-6 5-10 11-10 7 0 12 5 12 12 0 6-4 11-11 11-3 0-5-1-7-2l-6 3 1-5c-2-2-3-5-3-9z" fill="none" stroke="#1F4D3D" stroke-width="2" stroke-linejoin="round"/>
    <circle cx="28" cy="20" r="1.3" fill="#1F4D3D"/>
    <path d="M34 22l4 1-4 2z" fill="#1F4D3D"/>
    <path d="M18 33l-2 6M24 34l0 6" stroke="#1F4D3D" stroke-width="1.8" stroke-linecap="round"/>
  
  </svg>
</svg>
