<svg xmlns="http://www.w3.org/2000/svg" viewBox="0 0 64 64" width="64" height="64" role="img" aria-label="sheep icon">
  <circle cx="32" cy="32" r="30" fill="#EAF1EC" stroke="#F1D28A" stroke-width="2"/>
  <svg x="8" y="8" width="48" height="48" viewBox="0 0 48 48">
    
    <path d="M11 18c-2-3-1-7 1-8 2 2 2 5 1 8M37 18c2-3 1-7-1-8-2 2-2 5-1 8" fill="none" stroke="#1F4D3D" stroke-width="2" stroke-linecap="round"/>
    <circle cx="14" cy="24" r="6" fill="none" stroke="#1F4D3D" stroke-width="1.6"/>
    <circle cx="18" cy="20" r="5" fill="none" stroke="#1F4D3D" stroke-width="1.6"/>
    <circle cx="24" cy="27" r="7" fill="none" stroke="#1F4D3D" stroke-width="1.6"/>
    <circle cx="30" cy="20" r="5" fill="none" stroke="#1F4D3D" stroke-width="1.6"/>
    <circle cx="34" cy="24" r="6" fill="none" stroke="#1F4D3D" stroke-width="1.6"/>
    <path d="M18 30c0 5 3 9 6 9s6-4 6-9" fill="none" stroke="#1F4D3D" stroke-width="2"/>
    <circle cx="22" cy="27" r="1.2" fill="#1F4D3D"/>
    <circle cx="27" cy="27" r="1.2" fill="#1F4D3D"/>
  
  </svg>
</svg>
