<svg xmlns="http://www.w3.org/2000/svg" viewBox="0 0 64 64" width="64" height="64" role="img" aria-label="snail icon">
  <circle cx="32" cy="32" r="30" fill="#EAF1EC" stroke="#F1D28A" stroke-width="2"/>
  <svg x="8" y="8" width="48" height="48" viewBox="0 0 48 48">
    
    <path d="M8 32c0-6 5-10 11-10 5 0 8 3 8 7 0 3-2 5-5 5s-5-2-5-4 1.5-3 3-3" fill="none" stroke="#1F4D3D" stroke-width="2" stroke-linecap="round"/>
    <circle cx="28" cy="26" r="10" fill="none" stroke="#1F4D3D" stroke-width="2"/>
    <path d="M28 34a8 8 0 010-16" fill="none" stroke="#1F4D3D" stroke-width="1.6"/>
    <path d="M8 32c-2 2-3 5-3 5M14 22l-2-5M20 20l1-5" stroke="#1F4D3D" stroke-width="1.8" stroke-linecap="round"/>
  
  </svg>
</svg>
