<svg xmlns="http://www.w3.org/2000/svg" viewBox="0 0 64 64" width="64" height="64" role="img" aria-label="turkey icon">
  <circle cx="32" cy="32" r="30" fill="#EAF1EC" stroke="#F1D28A" stroke-width="2"/>
  <svg x="8" y="8" width="48" height="48" viewBox="0 0 48 48">
    
    <path d="M24 30c-5 2-9 1-12-2-2 3-1 6 1 7 3-2 6-3 9-2M24 30c5 2 9 1 12-2 2 3 1 6-1 7-3-2-6-3-9-2" fill="none" stroke="#1F4D3D" stroke-width="1.8" stroke-linecap="round"/>
    <circle cx="24" cy="22" r="8" fill="none" stroke="#1F4D3D" stroke-width="2"/>
    <path d="M24 14l4-4M24 14l-2-5M24 14l3 3" stroke="#1F4D3D" stroke-width="1.6" stroke-linecap="round"/>
    <circle cx="22" cy="21" r="1.2" fill="#1F4D3D"/>
    <path d="M28 22l3 1-3 2z" fill="#1F4D3D"/>
    <path d="M24 30v8" stroke="#1F4D3D" stroke-width="1.8" stroke-linecap="round"/>
  
  </svg>
</svg>
